<?xml version="1.0" encoding="utf-8"?>
<!-- Generator: Adobe Illustrator 26.0.2, SVG Export Plug-In . SVG Version: 6.00 Build 0)  -->
<svg version="1.1" id="Layer_1" shaper:fusionaddin="version:1.5.0" xmlns:shaper="http://www.shapertools.com/namespaces/shaper"
	 xmlns="http://www.w3.org/2000/svg" xmlns:xlink="http://www.w3.org/1999/xlink" x="0px" y="0px" viewBox="0 0 1196.2 820.8"
	 style="enable-background:new 0 0 1196.2 820.8;" xml:space="preserve">
<style type="text/css">
	.st0{fill:#969696;}
	.st1{fill:#FFFFFF;stroke:#000000;stroke-miterlimit:113.3858;}
</style>
<path vector-effect="non-scaling-stroke" shaper:cutDepth="0.0127" shaper:pathType="exterior" d="M43.2,820.8H1153
	c23.9,0,43.2-19.3,43.2-43.2V174.7c0-11.6-4.7-22.7-13-30.9L1048.9,12.3C1040.9,4.4,1030,0,1018.7,0H177.8
	c-11.3,0-22.2,4.5-30.3,12.4L12.9,145C4.6,153.2,0,164.3,0,175.8v601.8C0,801.5,19.3,820.8,43.2,820.8
	C43.2,820.8,43.2,820.8,43.2,820.8z"/>
<path vector-effect="non-scaling-stroke" shaper:cutDepth="0.00635" shaper:pathType="hogging" class="st0" d="M239.5,788.2
	c0-10.2,8.2-18.4,18.4-18.4c10.2,0,18.4,8.2,18.4,18.4c0,0,0,0,0,0c0,10.2-8.2,18.4-18.4,18.4C247.8,806.7,239.5,798.4,239.5,788.2
	L239.5,788.2z"/>
<path vector-effect="non-scaling-stroke" shaper:cutDepth="0.00635" shaper:pathType="hogging" class="st0" d="M919.8,788.2
	c0-10.2,8.2-18.4,18.4-18.4c10.2,0,18.4,8.2,18.4,18.4c0,10.2-8.2,18.4-18.4,18.4C928.1,806.7,919.9,798.5,919.8,788.2
	C919.8,788.3,919.8,788.3,919.8,788.2L919.8,788.2z"/>
<path vector-effect="non-scaling-stroke" shaper:cutDepth="0.00635" shaper:pathType="hogging" class="st0" d="M919.8,536
	c0-10.2,8.2-18.4,18.4-18.4c10.2,0,18.4,8.2,18.4,18.4c0,10.2-8.2,18.4-18.4,18.4C928.1,554.4,919.9,546.2,919.8,536
	C919.8,536,919.8,536,919.8,536L919.8,536z"/>
<path vector-effect="non-scaling-stroke" shaper:cutDepth="0.00635" shaper:pathType="hogging" class="st0" d="M239.5,536
	c0-10.2,8.2-18.4,18.4-18.4c10.2,0,18.4,8.2,18.4,18.4c0,0,0,0,0,0c0,10.2-8.2,18.4-18.4,18.4C247.8,554.4,239.5,546.1,239.5,536
	L239.5,536L239.5,536z"/>
<path vector-effect="non-scaling-stroke" shaper:cutDepth="0.0127" shaper:pathType="interior" class="st1" d="M248.7,788.2
	c0,5.1,4.1,9.2,9.2,9.2s9.2-4.1,9.2-9.2c0-5.1-4.1-9.2-9.2-9.2S248.7,783.2,248.7,788.2z"/>
<path vector-effect="non-scaling-stroke" shaper:cutDepth="0.0127" shaper:pathType="interior" class="st1" d="M929.1,788.2
	c0,5.1,4.1,9.2,9.2,9.2s9.2-4.1,9.2-9.2c0,0,0,0,0,0c0-5.1-4.1-9.2-9.2-9.2C933.2,779,929.1,783.1,929.1,788.2
	C929.1,788.2,929.1,788.2,929.1,788.2z"/>
<path vector-effect="non-scaling-stroke" shaper:cutDepth="0.0127" shaper:pathType="interior" class="st1" d="M929.1,536
	c0,5.1,4.1,9.2,9.2,9.2c5.1,0,9.2-4.1,9.2-9.2c0,0,0,0,0,0c0-5.1-4.1-9.2-9.2-9.2C933.2,526.7,929.1,530.9,929.1,536
	C929.1,536,929.1,536,929.1,536z"/>
<path vector-effect="non-scaling-stroke" shaper:cutDepth="0.0127" shaper:pathType="interior" class="st1" d="M248.7,536
	c0,5.1,4.1,9.2,9.2,9.2s9.2-4.1,9.2-9.2l0,0c0-5.1-4.1-9.2-9.2-9.2S248.7,530.9,248.7,536z"/>
<path vector-effect="non-scaling-stroke" shaper:cutDepth="0.0127" shaper:pathType="interior" class="st1" d="M297.8,58.3
	c0,15.6,12.6,28.2,28.2,28.2c15.6,0,28.2-12.6,28.2-28.2c0,0,0,0,0,0c0-15.6-12.6-28.2-28.2-28.2C310.4,30.1,297.8,42.7,297.8,58.3
	C297.8,58.3,297.8,58.3,297.8,58.3z"/>
<path vector-effect="non-scaling-stroke" shaper:cutDepth="0.0127" shaper:pathType="interior" class="st1" d="M161.7,738.6
	c0,15.6,12.6,28.2,28.2,28.2s28.2-12.6,28.2-28.2c0-15.6-12.6-28.2-28.2-28.2S161.7,723,161.7,738.6
	C161.7,738.6,161.7,738.6,161.7,738.6L161.7,738.6z"/>
<path vector-effect="non-scaling-stroke" shaper:cutDepth="0.0127" shaper:pathType="interior" class="st1" d="M842,330.4
	c0,15.6,12.6,28.2,28.2,28.2c15.6,0,28.2-12.6,28.2-28.2c0,0,0,0,0,0c0-15.6-12.6-28.2-28.2-28.2C854.7,302.2,842,314.8,842,330.4
	C842,330.4,842,330.4,842,330.4z"/>
<path vector-effect="non-scaling-stroke" shaper:cutDepth="0.0127" shaper:pathType="interior" class="st1" d="M569.9,194.3
	c0,15.6,12.6,28.2,28.2,28.2c15.6,0,28.2-12.6,28.2-28.2c0,0,0,0,0,0c0-15.6-12.6-28.2-28.2-28.2
	C582.5,166.1,569.9,178.7,569.9,194.3C569.9,194.3,569.9,194.3,569.9,194.3z"/>
<path vector-effect="non-scaling-stroke" shaper:cutDepth="0.0127" shaper:pathType="interior" class="st1" d="M433.8,466.5
	c0,15.6,12.6,28.2,28.2,28.2c15.6,0,28.2-12.6,28.2-28.2c0,0,0,0,0,0c0-15.6-12.6-28.2-28.2-28.2S433.8,450.9,433.8,466.5
	C433.8,466.4,433.8,466.5,433.8,466.5z"/>
<path vector-effect="non-scaling-stroke" shaper:cutDepth="0.0127" shaper:pathType="interior" class="st1" d="M978.1,602.5
	c0,15.6,12.6,28.2,28.2,28.2c15.6,0,28.2-12.6,28.2-28.2s-12.6-28.2-28.2-28.2C990.7,574.3,978.1,587,978.1,602.5z"/>
<path vector-effect="non-scaling-stroke" shaper:cutDepth="0.0127" shaper:pathType="interior" class="st1" d="M161.7,194.3
	c0,15.6,12.6,28.2,28.2,28.2s28.2-12.6,28.2-28.2c0-15.6-12.6-28.2-28.2-28.2C174.4,166.1,161.7,178.7,161.7,194.3
	C161.7,194.3,161.7,194.3,161.7,194.3L161.7,194.3z"/>
<path vector-effect="non-scaling-stroke" shaper:cutDepth="0.0127" shaper:pathType="interior" class="st1" d="M297.8,194.3
	c0,15.6,12.6,28.2,28.2,28.2c15.6,0,28.2-12.6,28.2-28.2c0,0,0,0,0,0c0-15.6-12.6-28.2-28.2-28.2
	C310.4,166.1,297.8,178.7,297.8,194.3C297.8,194.3,297.8,194.3,297.8,194.3z"/>
<path vector-effect="non-scaling-stroke" shaper:cutDepth="0.0127" shaper:pathType="interior" class="st1" d="M25.7,330.4
	c0,15.6,12.6,28.2,28.2,28.2s28.2-12.6,28.2-28.2l0,0c0-15.6-12.6-28.2-28.2-28.2S25.7,314.8,25.7,330.4z"/>
<path vector-effect="non-scaling-stroke" shaper:cutDepth="0.0127" shaper:pathType="interior" class="st1" d="M978.1,330.4
	c0,15.6,12.6,28.2,28.2,28.2c15.6,0,28.2-12.6,28.2-28.2l0,0c0-15.6-12.6-28.2-28.2-28.2C990.7,302.2,978.1,314.8,978.1,330.4z"/>
<path vector-effect="non-scaling-stroke" shaper:cutDepth="0.0127" shaper:pathType="interior" class="st1" d="M25.7,738.6
	c0,15.6,12.6,28.2,28.2,28.2s28.2-12.6,28.2-28.2s-12.6-28.2-28.2-28.2S25.7,723,25.7,738.6z"/>
<path vector-effect="non-scaling-stroke" shaper:cutDepth="0.0127" shaper:pathType="interior" class="st1" d="M842,194.3
	c0,15.6,12.6,28.2,28.2,28.2c15.6,0,28.2-12.6,28.2-28.2c0,0,0,0,0,0c0-15.6-12.6-28.2-28.2-28.2C854.7,166.1,842,178.7,842,194.3
	C842,194.3,842,194.3,842,194.3z"/>
<path vector-effect="non-scaling-stroke" shaper:cutDepth="0.0127" shaper:pathType="interior" class="st1" d="M842,466.5
	c0,15.6,12.6,28.2,28.2,28.2c15.6,0,28.2-12.6,28.2-28.2c0,0,0,0,0,0c0-15.6-12.6-28.2-28.2-28.2C854.7,438.2,842,450.9,842,466.5
	C842,466.4,842,466.5,842,466.5z"/>
<path vector-effect="non-scaling-stroke" shaper:cutDepth="0.0127" shaper:pathType="interior" class="st1" d="M25.7,194.3
	c0,15.6,12.6,28.2,28.2,28.2s28.2-12.6,28.2-28.2c0-15.6-12.6-28.2-28.2-28.2S25.7,178.8,25.7,194.3z"/>
<path vector-effect="non-scaling-stroke" shaper:cutDepth="0.0127" shaper:pathType="interior" class="st1" d="M297.8,330.4
	c0,15.6,12.6,28.2,28.2,28.2c15.6,0,28.2-12.6,28.2-28.2c0,0,0,0,0,0c0-15.6-12.6-28.2-28.2-28.2
	C310.4,302.2,297.8,314.8,297.8,330.4C297.8,330.4,297.8,330.4,297.8,330.4z"/>
<path vector-effect="non-scaling-stroke" shaper:cutDepth="0.0127" shaper:pathType="interior" class="st1" d="M1114.2,330.4
	c0,15.6,12.6,28.2,28.2,28.2s28.2-12.6,28.2-28.2l0,0c0-15.6-12.6-28.2-28.2-28.2S1114.2,314.8,1114.2,330.4z"/>
<path vector-effect="non-scaling-stroke" shaper:cutDepth="0.0127" shaper:pathType="interior" class="st1" d="M569.9,466.5
	c0,15.6,12.6,28.2,28.2,28.2s28.2-12.6,28.2-28.2c0,0,0,0,0,0c0-15.6-12.6-28.2-28.2-28.2C582.5,438.2,569.9,450.9,569.9,466.5
	C569.9,466.4,569.9,466.5,569.9,466.5z"/>
<path vector-effect="non-scaling-stroke" shaper:cutDepth="0.0127" shaper:pathType="interior" class="st1" d="M161.7,602.5
	c0,15.6,12.6,28.2,28.2,28.2s28.2-12.6,28.2-28.2c0-15.6-12.6-28.2-28.2-28.2S161.7,586.9,161.7,602.5
	C161.7,602.5,161.7,602.5,161.7,602.5L161.7,602.5z"/>
<path vector-effect="non-scaling-stroke" shaper:cutDepth="0.0127" shaper:pathType="interior" class="st1" d="M433.8,194.3
	c0,15.6,12.6,28.2,28.2,28.2c15.6,0,28.2-12.6,28.2-28.2c0,0,0,0,0,0c0-15.6-12.6-28.2-28.2-28.2
	C446.5,166.1,433.8,178.7,433.8,194.3C433.8,194.3,433.8,194.3,433.8,194.3z"/>
<path vector-effect="non-scaling-stroke" shaper:cutDepth="0.0127" shaper:pathType="interior" class="st1" d="M161.7,466.5
	c0,15.6,12.6,28.2,28.2,28.2s28.2-12.6,28.2-28.2l0,0c0-15.6-12.6-28.2-28.2-28.2S161.7,450.9,161.7,466.5
	C161.7,466.4,161.7,466.5,161.7,466.5L161.7,466.5z"/>
<path vector-effect="non-scaling-stroke" shaper:cutDepth="0.0127" shaper:pathType="interior" class="st1" d="M569.9,58.3
	c0,15.6,12.6,28.2,28.2,28.2c15.6,0,28.2-12.6,28.2-28.2c0,0,0,0,0,0c0-15.6-12.6-28.2-28.2-28.2C582.5,30.1,569.9,42.7,569.9,58.3
	C569.9,58.3,569.9,58.3,569.9,58.3z"/>
<path vector-effect="non-scaling-stroke" shaper:cutDepth="0.0127" shaper:pathType="interior" class="st1" d="M433.8,58.3
	c0,15.6,12.6,28.2,28.2,28.2c15.6,0,28.2-12.6,28.2-28.2c0,0,0,0,0,0c0-15.6-12.6-28.2-28.2-28.2C446.5,30.1,433.8,42.7,433.8,58.3
	C433.8,58.3,433.8,58.3,433.8,58.3z"/>
<path vector-effect="non-scaling-stroke" shaper:cutDepth="0.0127" shaper:pathType="interior" class="st1" d="M1114.2,738.6
	c0,15.6,12.6,28.2,28.2,28.2s28.2-12.6,28.2-28.2s-12.6-28.2-28.2-28.2S1114.2,723,1114.2,738.6L1114.2,738.6z"/>
<path vector-effect="non-scaling-stroke" shaper:cutDepth="0.0127" shaper:pathType="interior" class="st1" d="M706,330.4
	c0,15.6,12.6,28.2,28.2,28.2c15.6,0,28.2-12.6,28.2-28.2c0,0,0,0,0,0c0-15.6-12.6-28.2-28.2-28.2C718.6,302.2,706,314.8,706,330.4
	C706,330.4,706,330.4,706,330.4z"/>
<path vector-effect="non-scaling-stroke" shaper:cutDepth="0.0127" shaper:pathType="interior" class="st1" d="M25.7,602.5
	c0,15.6,12.6,28.2,28.2,28.2s28.2-12.6,28.2-28.2s-12.6-28.2-28.2-28.2S25.7,587,25.7,602.5z"/>
<path vector-effect="non-scaling-stroke" shaper:cutDepth="0.0127" shaper:pathType="interior" class="st1" d="M706,466.5
	c0,15.6,12.6,28.2,28.2,28.2c15.6,0,28.2-12.6,28.2-28.2c0,0,0,0,0,0c0-15.6-12.6-28.2-28.2-28.2S706,450.9,706,466.5
	C706,466.4,706,466.5,706,466.5z"/>
<path vector-effect="non-scaling-stroke" shaper:cutDepth="0.0127" shaper:pathType="interior" class="st1" d="M978.1,738.6
	c0,15.6,12.6,28.2,28.2,28.2c15.6,0,28.2-12.6,28.2-28.2s-12.6-28.2-28.2-28.2C990.7,710.4,978.1,723,978.1,738.6L978.1,738.6z"/>
<path vector-effect="non-scaling-stroke" shaper:cutDepth="0.0127" shaper:pathType="interior" class="st1" d="M569.9,330.4
	c0,15.6,12.6,28.2,28.2,28.2c15.6,0,28.2-12.6,28.2-28.2c0,0,0,0,0,0c0-15.6-12.6-28.2-28.2-28.2
	C582.5,302.2,569.9,314.8,569.9,330.4C569.9,330.4,569.9,330.4,569.9,330.4z"/>
<path vector-effect="non-scaling-stroke" shaper:cutDepth="0.0127" shaper:pathType="interior" class="st1" d="M433.8,330.4
	c0,15.6,12.6,28.2,28.2,28.2c15.6,0,28.2-12.6,28.2-28.2c0,0,0,0,0,0c0-15.6-12.6-28.2-28.2-28.2
	C446.5,302.2,433.8,314.8,433.8,330.4C433.8,330.4,433.8,330.4,433.8,330.4z"/>
<path vector-effect="non-scaling-stroke" shaper:cutDepth="0.0127" shaper:pathType="interior" class="st1" d="M706,58.3
	c0,15.6,12.6,28.2,28.2,28.2c15.6,0,28.2-12.6,28.2-28.2c0,0,0,0,0,0c0-15.6-12.6-28.2-28.2-28.2C718.6,30.1,706,42.7,706,58.3
	C706,58.3,706,58.3,706,58.3z"/>
<path vector-effect="non-scaling-stroke" shaper:cutDepth="0.0127" shaper:pathType="interior" class="st1" d="M842,58.3
	c0,15.6,12.6,28.2,28.2,28.2c15.6,0,28.2-12.6,28.2-28.2c0,0,0,0,0,0c0-15.6-12.6-28.2-28.2-28.2C854.7,30.1,842,42.7,842,58.3
	C842,58.3,842,58.3,842,58.3z"/>
<path vector-effect="non-scaling-stroke" shaper:cutDepth="0.0127" shaper:pathType="interior" class="st1" d="M706,194.3
	c0,15.6,12.6,28.2,28.2,28.2c15.6,0,28.2-12.6,28.2-28.2c0,0,0,0,0,0c0-15.6-12.6-28.2-28.2-28.2C718.6,166.1,706,178.7,706,194.3
	C706,194.3,706,194.3,706,194.3z"/>
<path vector-effect="non-scaling-stroke" shaper:cutDepth="0.0127" shaper:pathType="interior" class="st1" d="M978.1,194.3
	c0,15.6,12.6,28.2,28.2,28.2c15.6,0,28.2-12.6,28.2-28.2l0,0c0-15.6-12.6-28.2-28.2-28.2C990.7,166.1,978.1,178.8,978.1,194.3z"/>
<path vector-effect="non-scaling-stroke" shaper:cutDepth="0.0127" shaper:pathType="interior" class="st1" d="M1114.2,194.3
	c0,15.6,12.6,28.2,28.2,28.2s28.2-12.6,28.2-28.2l0,0c0-15.6-12.6-28.2-28.2-28.2S1114.2,178.8,1114.2,194.3z"/>
<path vector-effect="non-scaling-stroke" shaper:cutDepth="0.0127" shaper:pathType="interior" class="st1" d="M25.7,466.5
	c0,15.6,12.6,28.2,28.2,28.2s28.2-12.6,28.2-28.2c0-15.6-12.6-28.2-28.2-28.2S25.7,450.9,25.7,466.5z"/>
<path vector-effect="non-scaling-stroke" shaper:cutDepth="0.0127" shaper:pathType="interior" class="st1" d="M1114.2,602.5
	c0,15.6,12.6,28.2,28.2,28.2s28.2-12.6,28.2-28.2s-12.6-28.2-28.2-28.2S1114.2,587,1114.2,602.5z"/>
<path vector-effect="non-scaling-stroke" shaper:cutDepth="0.0127" shaper:pathType="interior" class="st1" d="M1114.2,466.5
	c0,15.6,12.6,28.2,28.2,28.2s28.2-12.6,28.2-28.2c0-15.6-12.6-28.2-28.2-28.2S1114.2,450.9,1114.2,466.5z"/>
<path vector-effect="non-scaling-stroke" shaper:cutDepth="0.0127" shaper:pathType="interior" class="st1" d="M297.8,466.5
	c0,15.6,12.6,28.2,28.2,28.2c15.6,0,28.2-12.6,28.2-28.2c0,0,0,0,0,0c0-15.6-12.6-28.2-28.2-28.2
	C310.4,438.2,297.8,450.9,297.8,466.5C297.8,466.4,297.8,466.5,297.8,466.5z"/>
<path vector-effect="non-scaling-stroke" shaper:cutDepth="0.0127" shaper:pathType="interior" class="st1" d="M978.1,466.5
	c0,15.6,12.6,28.2,28.2,28.2c15.6,0,28.2-12.6,28.2-28.2c0-15.6-12.6-28.2-28.2-28.2C990.7,438.3,978.1,450.9,978.1,466.5z"/>
<path vector-effect="non-scaling-stroke" shaper:cutDepth="0.0127" shaper:pathType="interior" class="st1" d="M161.7,330.4
	c0,15.6,12.6,28.2,28.2,28.2s28.2-12.6,28.2-28.2c0-15.6-12.6-28.2-28.2-28.2C174.4,302.2,161.7,314.8,161.7,330.4
	C161.7,330.4,161.7,330.4,161.7,330.4L161.7,330.4z"/>
</svg>
